<svg xmlns="http://www.w3.org/2000/svg" width="34.137" height="30.004" viewBox="0 0 34.137 30.004">
  <g data-name="Gruppe 1019" transform="translate(0 -10)">
    <path data-name="Pfad 65" d="M11,20H29.137a1,1,0,0,0,.962-.725l4-14A1,1,0,0,0,33.137,4H8.692L7.977.783A1,1,0,0,0,7,0H1A1,1,0,1,0,1,2H6.2L9.809,18.249A3,3,0,0,0,11,24H29.137a1,1,0,0,0,0-2H11a1,1,0,0,1,0-2ZM31.811,6,28.382,18H11.8L9.136,6Zm0,0" transform="translate(0 10)" fill="#fff"/>
    <path data-name="Pfad 66" d="M150,363a3,3,0,1,0,3-3A3,3,0,0,0,150,363Zm3-1a1,1,0,1,1-1,1A1,1,0,0,1,153,362Zm0,0" transform="translate(-139.998 -325.997)" fill="#fff"/>
    <path data-name="Pfad 67" d="M362,363a3,3,0,1,0,3-3A3,3,0,0,0,362,363Zm3-1a1,1,0,1,1-1,1A1,1,0,0,1,365,362Zm0,0" transform="translate(-337.863 -325.997)" fill="#fff"/>
  </g>
</svg>
